<svg width="512" height="512" viewBox="0 0 512 512" fill="none" xmlns="http://www.w3.org/2000/svg">
  
  <g transform="translate(71.68, 71.68) scale(2.560000)">
    <path fill="#ECEFF4" d="M70.943497,106.324638 
  C71.260757,102.371124 69.644592,100.794128 66.167625,100.307617 
  C44.902096,97.332077 36.895325,78.158028 43.869080,59.382908 
  C46.963436,51.052116 53.837074,46.774071 61.935959,44.168606 
  C63.467010,43.676064 64.926514,43.541016 65.707504,45.389492 
  C66.449974,47.146824 66.056381,48.418915 64.486031,49.703983 
  C54.115864,58.190159 50.812862,72.790939 56.408638,84.985374 
  C58.275570,89.053841 61.126678,92.217598 65.199654,94.191704 
  C69.722054,96.383636 70.853058,95.788078 70.920761,90.855652 
  C71.023636,83.360443 70.955193,75.862892 70.963356,68.366341 
  C70.965714,66.200653 71.092575,64.028831 70.973160,61.870281 
  C69.974586,43.819626 83.236649,41.192459 94.919693,44.315525 
  C104.878548,46.977684 112.045372,56.621002 112.315910,66.920929 
  C112.815010,85.922699 105.406410,95.678474 86.666237,100.491203 
  C83.634743,101.269730 82.124092,102.700172 82.289520,106.025368 
  C82.504456,110.345917 82.154930,114.695213 82.385918,119.014084 
  C82.596100,122.944145 81.082298,124.312637 77.160210,124.198135 
  C73.316978,124.085945 70.618088,123.583977 70.932022,118.771973 
  C71.191704,114.791489 70.962730,110.779137 70.943497,106.324638 
M82.330963,78.495880 
  C82.330963,83.915375 82.330963,89.334869 82.330963,94.702126 
  C86.585670,95.521233 89.282036,93.837105 91.762093,91.907608 
  C101.223419,84.546700 103.133682,60.723892 94.954277,51.954529 
  C92.763680,49.605930 90.079941,47.485851 86.635307,48.803444 
  C83.285851,50.084633 82.319328,53.124969 82.334244,56.546627 
  C82.364693,63.530048 82.336037,70.513725 82.330963,78.495880 z"/>
  </g>
</svg>